<svg xmlns="http://www.w3.org/2000/svg"><symbol id="brachiosaurus" viewBox="0 0 256 256"><path d="M86.4 151.2a19.8 19.8 0 0 0-4.6.5c0 .2.2.4.5.6l1.2.6 1.6.6 1.7.5 1.5.4h2.2l1.5-.2 1.4-.5a2.7 2.7 0 0 0 1-.9 16.7 16.7 0 0 0-3.9-1.3 19 19 0 0 0-4.1-.3z"/><path d="M128 1.7a126 126 0 1 0 126 126 126 126 0 0 0-126-126zm50 91.6v.2a4.3 4.3 0 0 1-.1.8c-.1.4-.1.8-.2 1.3l-.2 1.3v.8a5.9 5.9 0 0 0-.5 1.1l-.4 1.2-.3 1.2-.4 1.2-1 1.8a12.8 12.8 0 0 0-1 1.8l-12 16.7v.3l-.2.2-.2.2-.2.3-1 1.4-1.2 1.7-1.3 2-1.2 2a14.7 14.7 0 0 0-.8 1.8 4.2 4.2 0 0 0-.3 1.4c0 .2-.1.3-.1.4s.1.3.1.4c-.1 0-.2.1-.2.2s.1.2.2.2v6.1a1.6 1.6 0 0 1-.1.6l-.2.7c-.1.2-.3.5-.4.7s-.3.5-.3.7v1a.2.2 0 0 1 0 .3l-.2.5-.4.5-.3.3v.2l.5.3.5.3v1.7a14 14 0 0 1-.4 2.1c-.1.7-.3 1.4-.5 2.1s-.3 1.4-.4 2.1a13.7 13.7 0 0 0-.2 2.1 37 37 0 0 0 .2 3.8 25.2 25.2 0 0 0 .7 3.7 19.3 19.3 0 0 0 1.3 3.5 14.1 14.1 0 0 0 2.1 3.2l-.8.5-1 .4-1 .3h-1.2l-.6-.2-.7-.2h-1l-.5-.2-.4-.3a.8.8 0 0 1-.2-.4 18 18 0 0 0 .1-2.5c0-.9-.1-1.7-.2-2.6s-.2-1.7-.3-2.6l-.3-2.5v-.4l-.2-.4c0-.7.1-1.4.1-2.2s0-1.6-.1-2.4a15.8 15.8 0 0 0-.4-2.4 6.9 6.9 0 0 0-.9-2.1 2 2 0 0 0-.9 1.1 13.3 13.3 0 0 0-.5 1.6c-.1.6-.1 1.2-.3 1.7s-.6 1-.6 1.4v4.6c0 1.7-.1 3.4-.1 5s.1 3.3.3 5l.2.2.5.4.5.4a.6.6 0 0 1 .2.4c0 .1-.2.3-.5.5l-1.1.5-1.2.5-.8.3h-.5l-2.9-1.6a.3.3 0 0 1-.1-.3v-.4a13.5 13.5 0 0 1 0-1.8 13.1 13.1 0 0 0 .1-1.8 15.8 15.8 0 0 0-.2-2.3c-.1-.7-.2-1.5-.4-2.2l-.4-2.3a18 18 0 0 1-.2-2.4c0-.7 0-1.4.1-2s.1-1.1.2-1.7l.3-1.7.4-1.9a.8.8 0 0 0 0-.4 2.5 2.5 0 0 1-.1-.4h-1.1l-1.1.3-1.2.4-1.2.3h-11.4a2.5 2.5 0 0 0-1.4.5v3.1c0 1-.1 2.1-.1 3.1s-.1 2.1-.2 3.1-.1 2.1-.1 3.1v3c0 .3.4.7.7 1l.8 1 .7 1.1a2.1 2.1 0 0 1 .3 1.1 5.5 5.5 0 0 1-2.4.2c.1.3 0 .4-.1.5h-3a2.6 2.6 0 0 1-1.1-.5 1.3 1.3 0 0 1-.5-1.1 4.2 4.2 0 0 1 .1-.8l.2-.8.2-.8a3.9 3.9 0 0 0 .1-.8 15.7 15.7 0 0 0-.2-2.3c-.1-.7-.2-1.5-.4-2.2l-.5-2.3a16.3 16.3 0 0 1-.4-2.4h-.3c-.1 0-.2.5-.3.6l-.2.4-.2.3-.9 1.4-.9 1.4a10.1 10.1 0 0 0-.7 1.5 5.1 5.1 0 0 0-.3 1.6 2.6 2.6 0 0 0 .2 1l.4.9.4.7.2.4a.5.5 0 0 1-.2.4l-.6.3-.8.2h-2.6l-.6-.2-.4-.5-.3-1-.3-1a3 3 0 0 1-.2-1 2 2 0 0 1 .3-.9l.6-1 .6-1 .5-.9 1.5-3.6 1.5-3.6.3-.5.3-.4.3-.5a1.1 1.1 0 0 0 .1-.5c0-.2-.1-.3-.2-.4h-.8l-5.4 1.5-.8.3-1.1.2-1 .3a.7.7 0 0 0-.4.6.9.9 0 0 0 .2.5l.4.4.5.3.5.4-.2.3-.8-.5-.8-.5-.9-.4h-.9a8.8 8.8 0 0 0-2.3.3l-2.4.7-2.5.7a10.4 10.4 0 0 1-2.5.3l-2.1-.2-2.9-.7-3.3-1.1-3-1.4a9.5 9.5 0 0 1-2.2-1.6 2.5 2.5 0 0 1-.9-1.8 2.7 2.7 0 0 1 .7-2 3.8 3.8 0 0 1 1.7-1 8.5 8.5 0 0 1 2.1-.1c.7 0 1.4.2 2 .2H87a1.6 1.6 0 0 1 .8-.2h1.4l1.5.2 1.2.2 1.2.3 1.1.5 1.1.5 1.2.2a5.3 5.3 0 0 0 2.4-.6l2.5-1.5 2.3-1.9 2-1.6 1.1-.8 1.1-.7 1-.8a4.8 4.8 0 0 0 .9-1 22.7 22.7 0 0 0 1.6-2.7 18.9 18.9 0 0 1 1.6-2.7l.8-.8.9-.6 1-.5 1-.6 2.2-1.6 2.1-1.8 2-1.8 2.1-1.7a12.9 12.9 0 0 1 2.3-1.3l2.4-1.1 1.5-.8 1.5-.8 1.5-.7 1.6-.5 13.5-2a6.5 6.5 0 0 0 2.1-.7l2-1.3 1.9-1.7 1.8-2 1.6-1.9 1.4-1.7 4.6-5.4.2-.2.3-.3.3-.3.2-.2 1.2-2h.7l.3-.2.2-.2.8-1 .8-1.2.8-1.2.6-1a7.7 7.7 0 0 0 .5-1.2l.4-1.3.5-1.3c.2-.4.6-.9.6-1.3v-3.6a3.1 3.1 0 0 0-.7-1.9 7 7 0 0 0-1.6-1.6 7.9 7.9 0 0 0-2-1.1 5.6 5.6 0 0 0-1.9-.4 14.9 14.9 0 0 0-3.5.4 7.4 7.4 0 0 0-3.1 1.6l-.9.9-1 1.1-1.1 1.2-1.1 1.1-1.1.8a2.1 2.1 0 0 1-1.1.3 1 1 0 0 1-1-1v-1.7a3.1 3.1 0 0 0-.1-1l-.4-.8-.4-.7a1.9 1.9 0 0 1-.1-.7l.5-.2.3-.4.3-.5.5-.4h1.7a.7.7 0 0 0 .6-.2l.4-.4h.2l.2.2v.3a.3.3 0 0 1 .2-.2l.4-.2.7-.4.8-.5.8-.5.7-.4.3-.2 1.3-.8 1.1-.4h5l.9.3.9.2.9.2.9.3a9.1 9.1 0 0 1 2.8 1.8 10.3 10.3 0 0 1 1.9 2.5 11.7 11.7 0 0 1 1 3 14.5 14.5 0 0 1 .3 3.3v.9c0 .2.3.2.3.4z"/></symbol><symbol id="micropachycephalosaurus" viewBox="0 0 256 256"><path d="M132.9 150.7c-.3 0-.4.2-.4.6h-.1a.4.4 0 0 0-.5.5c0 .4.2.6.5.6s.4-.2.4-.6h.1c.3 0 .5-.2.5-.5s-.2-.6-.5-.6zm1.4-.8a2.4 2.4 0 0 0-.9.8h.3a2.2 2.2 0 0 0 1.1-.3 2.3 2.3 0 0 0 .8-.8h-.3a2.1 2.1 0 0 0-1 .3zm3-2.5c-.3 0-.4.2-.4.5h-.1c-.3 0-.4.2-.4.6h-.1c-.3 0-.5.2-.5.6s.2.5.5.5.5-.2.5-.5h.1c.3 0 .5-.2.5-.6h.1c.3 0 .5-.2.5-.6s-.3-.5-.7-.5zm23.2-5.9a14 14 0 0 1-1.3 1.4 1.8 1.8 0 0 0 .8 1l1.1.2a2.1 2.1 0 0 0 1.4-.5 4.7 4.7 0 0 0 1.1-1.2 10.2 10.2 0 0 0 .8-1.5c.2-.5.4-1.2.5-1.2h-3.4c-.2.1-.5 1.2-1 1.8z"/><path d="M128.3 1A126.7 126.7 0 1 0 255 127.7 126.7 126.7 0 0 0 128.3 1zm95 75.1l-1.6.4H218a42.4 42.4 0 0 0-5.2 1.2 15.9 15.9 0 0 0-3.6 1.6 9.3 9.3 0 0 0-2.5 2.2 13.8 13.8 0 0 0-1.8 2.9 35.7 35.7 0 0 0-1.5 3.9l-1.7 5-1.2 3.4c-.4 1.1-.8 2.1-1.3 3.2s-.9 2.1-1.4 3.1l-1.8 3.2a33.2 33.2 0 0 1-2.7 4.1l-2.9 3.7-3.1 3.6c-1.1 1.2-2.1 2.5-3.1 3.8a10.5 10.5 0 0 0-1.4 2.7c-.3.9-.6 1.7-1 2.5a8.3 8.3 0 0 1-1.3 2.2 5.6 5.6 0 0 1-2.5 1.6l-1.3.6-2 .7-2 .6-1.4.4a2.9 2.9 0 0 1 .2 2 2 2 0 0 1-.9.9l-1.2.6a1.6 1.6 0 0 0-.9 1l-2.2 6.7a2.7 2.7 0 0 1-1 1.5 5.9 5.9 0 0 1-1.8.9 11.2 11.2 0 0 1-2 .2 14.7 14.7 0 0 1-1.9-.1h-.6c-.5 0-.9.2-1.1 0s-.4-.3-.4-.8a.6.6 0 0 1 .1-.4l.2-.3.2-.3a.7.7 0 0 0 .1-.4.5.5 0 0 1 0-.2 23.2 23.2 0 0 0-3.4 1.7l-3.4 2-3.3 2.2-3.4 2-.9.4-1.2.6-1 .8a1.5 1.5 0 0 0-.4 1v.3a1.6 1.6 0 0 1 0 .2l1.8 1.6 1.9 1.7 2 1.6 2.1 1.2 1.8.7 1.9.5 1.9.6a7.4 7.4 0 0 1 1.7.9 8.2 8.2 0 0 1 1.3 1.4l1.1 1.5 1.1 1.5a6.1 6.1 0 0 0 1.5 1.3l1.7.6 2.1.6a6.3 6.3 0 0 1 1.8 1 2.1 2.1 0 0 1 .8 1.7v.5l-5.6 1.1-1.1.4a2.3 2.3 0 0 1-1.2.3h-.6l-1.1-.6-1.7-1-1.7-1-1-.7-.2-.2-.3-.5-.3-.5-.2-.4-2.2-4.5-1.1-.4-1.8-.7-2.1-.9-2.1-1-1.8-.8-1.1-.6-2.8-1.6a16.2 16.2 0 0 1-2.6-2.1 13.1 13.1 0 0 1-2-2.7 8.1 8.1 0 0 1-1-3.1l-.6.2-.6.3-.9.6-1.7 1.2-2.1 1.4-2.1 1.4-1.8 1.1-.9.5-6 3.5a23.2 23.2 0 0 0-4.5 3.4 17.2 17.2 0 0 0-3.6 4.4c-.9 1.7-.7 3.9-2.4 6.6v.2a3.4 3.4 0 0 1 0 .4v.9a9.9 9.9 0 0 0 1.1 4.4 7.9 7.9 0 0 0 2.1 2.6 8.4 8.4 0 0 0 2.6 1.4l2.6 1a5.7 5.7 0 0 1 2 1 5.1 5.1 0 0 1 .8 2h-13.4l-.2-.4c-.1-.2-.2-.1-.4-.2h-.5l-.6-.3a3 3 0 0 1-1.3-1.5 8.7 8.7 0 0 1-.5-2.2 15.7 15.7 0 0 1 .2-2.3c0-.8.3-1.4.3-2v-1.5a6.9 6.9 0 0 1 .3-1.8c.2-.8.3-1.7.6-2.7s.5-2 .8-3.1l.8-3.1.7-2.7.4-1.8a15.2 15.2 0 0 1 .7-2 13.1 13.1 0 0 1 1-1.9 14.3 14.3 0 0 0 4.5-2.6 27.5 27.5 0 0 0 3.2-3.3l2.9-3.4a15.3 15.3 0 0 1 3.4-3.1l1.4-.7 2-.8 2.3-1 2.1-1.1a8 8 0 0 0 1.6-1.3 2.3 2.3 0 0 0 .6-1.6v-1.3a1.8 1.8 0 0 0-.6-1.2l-.8-.3-1.2-.5-1.2-.6-.8-.3a10.2 10.2 0 0 1-2-1.2l-2.6-1.9c-.9-.7-1.8-1-2.5-1.6a3.2 3.2 0 0 0-1.7-.6h-7.8c-6 0-11.8-.1-17.6.1s-11.6.2-17.6.2c-4.4 0-8.7-.1-12.8-.4a108.4 108.4 0 0 1-12.3-1.4 85.5 85.5 0 0 1-12-2.9 69.2 69.2 0 0 1-11.7-5l-1.4-.7-1.6-1a6 6 0 0 1-1.3-1.3 2.5 2.5 0 0 1-.5-1.6 6.9 6.9 0 0 1 2.1.4l2.4.9 2.2 1 1.5.6 4.6 1.7 5 1.4 5.1 1a33.5 33.5 0 0 0 4.8.3H73l2.5-.3 3.4-.5 3.6-.6 3.4-.6 2.7-.6 6.9-1.3 7.3-1.6c2.5-.6 4.9-1.3 7.2-2.1a47.6 47.6 0 0 0 6.6-2.8l3.8-1.8 3.8-1.6 3.9-1.3a31.9 31.9 0 0 1 4.2-.9h4.5l1-.2 1.9-.3 3.3-.7 4-.9 4-.9c1.3-.3 2.4-.9 3.3-1.1s1.6-.7 1.9-.7h6.8c2.7 0 5.4.5 7.9.7s5.2.5 7.8.5a10 10 0 0 0 5-1.2 18.4 18.4 0 0 0 4.5-3.5 32.8 32.8 0 0 0 3.9-5 64.4 64.4 0 0 0 3.2-5.6c1-1.9 1.8-3.8 2.5-5.6s1.3-3.4 1.8-4.8.8-2.3 1.1-3.5l1-3.1a15.8 15.8 0 0 1 1.2-2.6 7.3 7.3 0 0 1 1.8-2 7.9 7.9 0 0 1 2.6-1.6 12.4 12.4 0 0 1 3.8-.8h3.1c.8 1.7 1.8.9 3 1.3a37.3 37.3 0 0 1 3.5 1.5 15.1 15.1 0 0 1 3 1.8 2.8 2.8 0 0 1 1.2 2.2 2.1 2.1 0 0 1-.4 1.4 3.1 3.1 0 0 1-1.2.3z"/></symbol><symbol id="velociraptor" viewBox="0 0 256 256"><path d="M128.7 1.3A126.3 126.3 0 1 0 255 127.7 126.3 126.3 0 0 0 128.7 1.3zm109.2 115.3h-7.3c-3 0-6.1-.1-9.1-.4l-9-1-9-1c-3-.3-6.1-.4-9.1-.4a134.3 134.3 0 0 0-16.2 1 73.2 73.2 0 0 0-15.7 3.7l-30.3 11a2.4 2.4 0 0 0-1.2 1.5 20.3 20.3 0 0 0-.8 2.7l-.6 2.8a6.9 6.9 0 0 1-.6 1.9 3.1 3.1 0 0 0 1.4 1.3l2.4 1.2 2.9 1.2a18.1 18.1 0 0 1 2.8 1.4 8.5 8.5 0 0 1 2.1 1.9 3.8 3.8 0 0 1 .8 2.4 1.6 1.6 0 0 1-.5 1.2 4.9 4.9 0 0 1-1.2.9l-1.6.7-1.6.8a4.7 4.7 0 0 0-1.2 1 2.3 2.3 0 0 0-.5 1.5 3.7 3.7 0 0 0 .8 2.5 7.8 7.8 0 0 0 1.9 1.6l2.4 1.3a7.4 7.4 0 0 1 2.1 1.7 17.3 17.3 0 0 1 2 3.4 23.5 23.5 0 0 1 1.3 3.7 34.9 34.9 0 0 1 .8 3.8c.2 1.3.1 2.6.3 3.9l1.3 1.3v7.1h.8l1 .2 1 .2.6.2c0 .4.1.7.1.8a6.7 6.7 0 0 1-.1 1 7 7 0 0 1-.4 1.2 3.2 3.2 0 0 1-.6.9 1 1 0 0 1-.9.3H144c-.2 0-.5-.5-1-.8l-1.5-.9-1.5-.8c-.5-.3-.9-.9-1.2-.9h-6.1a4.7 4.7 0 0 1 .6-2.9 4.3 4.3 0 0 1 1.6-1.5 7 7 0 0 1 2.1-.6l2.1-.3a5 5 0 0 0 1.6-.6 1.5 1.5 0 0 0 .6-1.4 2.7 2.7 0 0 0 0-.3v-.3l-.8-1.8-1.3-2.4a26.6 26.6 0 0 0-1.5-2.5 9.4 9.4 0 0 0-1.5-1.8l-1.3-.8-1.8-.9-1.7-1.1a2.1 2.1 0 0 1-1-1.1 22.8 22.8 0 0 1-.9-2.9 21.4 21.4 0 0 0-1.1-3.2 7.9 7.9 0 0 0-1.7-2.6 3.9 3.9 0 0 0-2.9-1 23.2 23.2 0 0 0-6 .8 26.5 26.5 0 0 0-5.7 2.2 25.9 25.9 0 0 0-5 3.4 22.3 22.3 0 0 0-3.9 4.5l-.3.2h-.3l-.2-.3-.2-.6-.2-.6v-.3h-.3a1.4 1.4 0 0 0-1.1.5 6.6 6.6 0 0 0-.9 1.2l-.8 1.3a3.7 3.7 0 0 1-.8 1 4.3 4.3 0 0 1-.6-1.6 14.9 14.9 0 0 1-.1-1.6 10.3 10.3 0 0 1 .4-2.9l.9-2.8c.3-.9.6-1.6.9-2.5a19.5 19.5 0 0 0 .4-2.8h-5.2c0-1.6.2-1.8.6-2.4a5.8 5.8 0 0 1 1.6-1.6 7.1 7.1 0 0 1 2.1-.9l2.1-.3 3 .2 2.9.5 2.9.5 2.9.2h2.3a2.6 2.6 0 0 0-1.7-1.4l-2.5-.4-2.7-.2c-.9 0-1.6.1-2.2-.2l-3.9-2.2h-.3a13.4 13.4 0 0 0-3.1 0 13.1 13.1 0 0 1-3.1.2 7.3 7.3 0 0 1-3-.7l-2.6-1.4-2.6-1.3a5.1 5.1 0 0 0-2.9-.6v6h1.6l1-.3.9-.5c.3-.2.4-.4.9-.6l.6-.2v2.8l2-.7c0 .1.2.3.2.5s.1.4.1.5a5.5 5.5 0 0 1-1.3 3.9 21.6 21.6 0 0 1-3.2 2.9 22.6 22.6 0 0 0-4.6-1.3L78 155v-7.7l-1.7.5-2 1a12.6 12.6 0 0 0-1.9 1.2c-.5.4-.9.8-.9 1.2v6.9a10.3 10.3 0 0 0 2.9-.3l1.8-.6 1.2-.6a2.6 2.6 0 0 1 1.2-.3h.3l.3.7.5 1.2.4 1.3a4.2 4.2 0 0 1 .2 1 5.1 5.1 0 0 1-.3 1.5 7.1 7.1 0 0 1-1.1 1.8 5.7 5.7 0 0 1-1.5 1.3 3.4 3.4 0 0 1-1.8.5h-1l-3-.5-3.6-.7a11.9 11.9 0 0 1-3.2-1.2 2.5 2.5 0 0 1-1.4-2.1v-11.7c0-.1.4-.4.9-.8l1.9-1.6 2.4-2.2a25.9 25.9 0 0 0 2.4-2.5 20.3 20.3 0 0 0 1.8-2.6 5.5 5.5 0 0 0 .7-2.6 3.8 3.8 0 0 0-1.2-2.8 11.7 11.7 0 0 0-2.8-2l-3.2-1.4-2.5-.9-1.3-9c-.1-.8-.3-1.7-.6-2.7a11.7 11.7 0 0 0-1.1-2.7 7.2 7.2 0 0 0-1.8-2.1 4.1 4.1 0 0 0-2.6-.9 12.4 12.4 0 0 0-3.6.5 14.8 14.8 0 0 0-3.2 1.5l-1.6 1-2.8 1.4-2.9 1.7-2.9 1.7-2.5 1.6c-.8.4-1.3 1.1-1.6 1.1h-1l-1.7-.2-2.1-.4a3.4 3.4 0 0 1-1.4-.8c-.5-.3-.3-.8-.3-1.4v-1.9c0-.6-.2-.9 0-.9h1.6a1.1 1.1 0 0 1 0-.4l.2-.8.2-.9a.8.8 0 0 0 0-.5 2.4 2.4 0 0 0-.8-.8l-.9-.5-.7-.7a2 2 0 0 1-.4-.9 3.2 3.2 0 0 1 .2-1.2 4.8 4.8 0 0 1 .7-1.2c.3-.4.2-.6.6-.9l.8-.3v.8c0 .5.4 1 .6 1.5a1.2 1.2 0 0 0 1.2.7 1.6 1.6 0 0 0 1.1-.5 5.3 5.3 0 0 0 .9-1.1 10.3 10.3 0 0 0 .6-1.6c.1-.4.3.3.3-1.4H22.9a1.9 1.9 0 0 1-.9-.5l-1-.7-.9-.8a1.4 1.4 0 0 1-.4-1 4.5 4.5 0 0 1 1.1-3.2 7.4 7.4 0 0 1 2.6-1.8 16.9 16.9 0 0 1 3.2-1l2.8-.8 2.2-.9 3.3-1.5 3.3-1.6a10 10 0 0 1 2.2-1h13.5a7.4 7.4 0 0 1 3.8 1 13.3 13.3 0 0 1 3.1 2.5 26.3 26.3 0 0 1 2.5 3.3l2.3 3.3a16.7 16.7 0 0 0 2.3 2.5 3.7 3.7 0 0 0 2.5 1 .8.8 0 0 0 .8-.4.9.9 0 0 1 .8-.4 3.8 3.8 0 0 1 1.5.3l1.5.7 1.5.7a3.9 3.9 0 0 0 1.5.3l4.1-.2 4.1-.4 4.1-.5 4.1-.2a64.2 64.2 0 0 1 7.3.4 38.6 38.6 0 0 1 7.2 1.6l5 2 5.1 2.2a45.8 45.8 0 0 0 5.2 1.7 21.2 21.2 0 0 0 5.4.7h2.6l12.8-2.7c4.3-.9 8.5-1.6 12.7-2.3s8.5-1.2 12.8-1.5 8.7-.6 13-.6h8.8a40.5 40.5 0 0 1 5 .9l36.2 7.2h11.6c-.8 0-1.8 1-3.1 1.4a18.2 18.2 0 0 1-4.1.1z"/></symbol></svg>